<mxfile host="app.diagrams.net" modified="2024-02-22T23:34:22.653Z" agent="Mozilla/5.0 (Windows NT 10.0; Win64; x64) AppleWebKit/537.36 (KHTML, like Gecko) Chrome/121.0.0.0 Safari/537.36" etag="cbmKpVh_o452vL0RpJuU" scale="1" border="0" version="23.1.6" type="device">
  <diagram id="C5RBs43oDa-KdzZeNtuy" name="Page-1">
    <mxGraphModel dx="1416" dy="2327" grid="1" gridSize="10" guides="1" tooltips="1" connect="1" arrows="1" fold="1" page="1" pageScale="1" pageWidth="827" pageHeight="1169" math="0" shadow="0">
      <root>
        <mxCell id="WIyWlLk6GJQsqaUBKTNV-0" />
        <mxCell id="WIyWlLk6GJQsqaUBKTNV-1" parent="WIyWlLk6GJQsqaUBKTNV-0" />
        <mxCell id="_BHGbHKsS6Eedb4s3Qyd-1" value="Start/Previous Step" style="strokeWidth=2;html=1;shape=mxgraph.flowchart.terminator;whiteSpace=wrap;spacing=20;spacingTop=5;spacingBottom=5;spacingLeft=5;spacingRight=5;fontSize=14;" parent="WIyWlLk6GJQsqaUBKTNV-1" vertex="1">
          <mxGeometry x="56" y="-70" width="174" height="50" as="geometry" />
        </mxCell>
        <mxCell id="_BHGbHKsS6Eedb4s3Qyd-2" value="" style="endArrow=classic;html=1;rounded=0;exitX=0.5;exitY=1;exitDx=0;exitDy=0;exitPerimeter=0;entryX=0.5;entryY=0;entryDx=0;entryDy=0;fontSize=14;" parent="WIyWlLk6GJQsqaUBKTNV-1" source="_BHGbHKsS6Eedb4s3Qyd-1" target="_BHGbHKsS6Eedb4s3Qyd-44" edge="1">
          <mxGeometry width="50" height="50" relative="1" as="geometry">
            <mxPoint x="119" y="104" as="sourcePoint" />
            <mxPoint x="143" y="34" as="targetPoint" />
          </mxGeometry>
        </mxCell>
        <mxCell id="_BHGbHKsS6Eedb4s3Qyd-56" style="edgeStyle=orthogonalEdgeStyle;rounded=0;orthogonalLoop=1;jettySize=auto;html=1;entryX=0.5;entryY=0;entryDx=0;entryDy=0;fontSize=14;" parent="WIyWlLk6GJQsqaUBKTNV-1" source="_BHGbHKsS6Eedb4s3Qyd-13" target="pIcZ7qprmyn_puhjhb8P-8" edge="1">
          <mxGeometry relative="1" as="geometry">
            <mxPoint x="143" y="520" as="targetPoint" />
          </mxGeometry>
        </mxCell>
        <mxCell id="_BHGbHKsS6Eedb4s3Qyd-57" value="Yes" style="edgeLabel;html=1;align=center;verticalAlign=middle;resizable=0;points=[];fontSize=14;" parent="_BHGbHKsS6Eedb4s3Qyd-56" vertex="1" connectable="0">
          <mxGeometry x="-0.3766" y="-2" relative="1" as="geometry">
            <mxPoint x="2" y="4" as="offset" />
          </mxGeometry>
        </mxCell>
        <mxCell id="pIcZ7qprmyn_puhjhb8P-2" value="" style="edgeStyle=orthogonalEdgeStyle;rounded=0;orthogonalLoop=1;jettySize=auto;html=1;fontSize=14;entryX=0;entryY=0.5;entryDx=0;entryDy=0;" parent="WIyWlLk6GJQsqaUBKTNV-1" source="_BHGbHKsS6Eedb4s3Qyd-13" target="pIcZ7qprmyn_puhjhb8P-1" edge="1">
          <mxGeometry relative="1" as="geometry" />
        </mxCell>
        <mxCell id="pIcZ7qprmyn_puhjhb8P-3" value="No" style="edgeLabel;html=1;align=center;verticalAlign=middle;resizable=0;points=[];fontSize=14;" parent="pIcZ7qprmyn_puhjhb8P-2" vertex="1" connectable="0">
          <mxGeometry x="-0.0426" y="1" relative="1" as="geometry">
            <mxPoint x="-4" y="-2" as="offset" />
          </mxGeometry>
        </mxCell>
        <mxCell id="_BHGbHKsS6Eedb4s3Qyd-13" value="&lt;p style=&quot;line-height: 120%; font-size: 14px;&quot;&gt;Does the customer want Matinée Standard parking?&lt;/p&gt;" style="rhombus;whiteSpace=wrap;html=1;strokeWidth=2;rounded=1;arcSize=12;verticalAlign=middle;horizontal=1;spacing=21;spacingBottom=5;spacingTop=5;spacingLeft=5;spacingRight=5;fontSize=14;" parent="WIyWlLk6GJQsqaUBKTNV-1" vertex="1">
          <mxGeometry x="63" y="320" width="160" height="160" as="geometry" />
        </mxCell>
        <mxCell id="_BHGbHKsS6Eedb4s3Qyd-52" style="edgeStyle=orthogonalEdgeStyle;rounded=0;orthogonalLoop=1;jettySize=auto;html=1;entryX=0.5;entryY=-0.047;entryDx=0;entryDy=0;entryPerimeter=0;fontSize=14;" parent="WIyWlLk6GJQsqaUBKTNV-1" source="_BHGbHKsS6Eedb4s3Qyd-38" target="_BHGbHKsS6Eedb4s3Qyd-53" edge="1">
          <mxGeometry relative="1" as="geometry">
            <mxPoint x="436.67" y="969.9999999999998" as="targetPoint" />
          </mxGeometry>
        </mxCell>
        <mxCell id="_BHGbHKsS6Eedb4s3Qyd-38" value="Output “valetCosts”" style="shape=parallelogram;html=1;strokeWidth=2;perimeter=parallelogramPerimeter;whiteSpace=wrap;rounded=1;arcSize=12;size=0.23;spacing=20;spacingTop=20;spacingBottom=20;spacingLeft=30;spacingRight=30;fontSize=14;" parent="WIyWlLk6GJQsqaUBKTNV-1" vertex="1">
          <mxGeometry x="360" y="810" width="172" height="60" as="geometry" />
        </mxCell>
        <mxCell id="RNRAndHt-aKRMC1XSZec-5" value="" style="edgeStyle=orthogonalEdgeStyle;rounded=0;orthogonalLoop=1;jettySize=auto;html=1;" parent="WIyWlLk6GJQsqaUBKTNV-1" source="_BHGbHKsS6Eedb4s3Qyd-44" target="RNRAndHt-aKRMC1XSZec-2" edge="1">
          <mxGeometry relative="1" as="geometry" />
        </mxCell>
        <mxCell id="_BHGbHKsS6Eedb4s3Qyd-44" value="&lt;div style=&quot;font-size: 14px;&quot;&gt;Import and store Order&lt;/div&gt;" style="shape=parallelogram;html=1;strokeWidth=2;perimeter=parallelogramPerimeter;whiteSpace=wrap;rounded=1;arcSize=12;size=0.23;spacing=20;spacingTop=20;spacingBottom=20;spacingLeft=20;spacingRight=20;fontSize=14;" parent="WIyWlLk6GJQsqaUBKTNV-1" vertex="1">
          <mxGeometry x="46" y="10" width="194" height="80" as="geometry" />
        </mxCell>
        <mxCell id="_BHGbHKsS6Eedb4s3Qyd-53" value="End/Next Step" style="strokeWidth=2;html=1;shape=mxgraph.flowchart.terminator;whiteSpace=wrap;spacing=20;spacingTop=5;spacingBottom=5;spacingLeft=5;spacingRight=5;fontSize=14;" parent="WIyWlLk6GJQsqaUBKTNV-1" vertex="1">
          <mxGeometry x="360.00000000000006" y="890" width="168" height="50" as="geometry" />
        </mxCell>
        <mxCell id="ZLTeGnqoFGhZjWjbSRd9-32" value="" style="edgeStyle=orthogonalEdgeStyle;rounded=0;orthogonalLoop=1;jettySize=auto;html=1;fontSize=14;" parent="WIyWlLk6GJQsqaUBKTNV-1" source="ZLTeGnqoFGhZjWjbSRd9-31" target="_BHGbHKsS6Eedb4s3Qyd-38" edge="1">
          <mxGeometry relative="1" as="geometry" />
        </mxCell>
        <mxCell id="ZLTeGnqoFGhZjWjbSRd9-31" value="Create a new Charge, set name to “Valet Parking Tip” , amount to user input and add to &quot;valetCosts&quot;" style="shape=parallelogram;html=1;strokeWidth=2;perimeter=parallelogramPerimeter;whiteSpace=wrap;rounded=1;arcSize=12;size=0;spacing=12;spacingLeft=0;spacingRight=0;fontSize=14;" parent="WIyWlLk6GJQsqaUBKTNV-1" vertex="1">
          <mxGeometry x="362" y="680" width="168" height="90" as="geometry" />
        </mxCell>
        <mxCell id="pIcZ7qprmyn_puhjhb8P-5" value="" style="edgeStyle=orthogonalEdgeStyle;rounded=0;orthogonalLoop=1;jettySize=auto;html=1;fontSize=14;" parent="WIyWlLk6GJQsqaUBKTNV-1" source="pIcZ7qprmyn_puhjhb8P-1" target="pIcZ7qprmyn_puhjhb8P-4" edge="1">
          <mxGeometry relative="1" as="geometry" />
        </mxCell>
        <mxCell id="pIcZ7qprmyn_puhjhb8P-7" value="No" style="edgeLabel;html=1;align=center;verticalAlign=middle;resizable=0;points=[];fontSize=14;" parent="pIcZ7qprmyn_puhjhb8P-5" vertex="1" connectable="0">
          <mxGeometry x="-0.1467" y="1" relative="1" as="geometry">
            <mxPoint as="offset" />
          </mxGeometry>
        </mxCell>
        <mxCell id="pIcZ7qprmyn_puhjhb8P-16" value="" style="edgeStyle=orthogonalEdgeStyle;rounded=0;orthogonalLoop=1;jettySize=auto;html=1;fontSize=14;" parent="WIyWlLk6GJQsqaUBKTNV-1" source="pIcZ7qprmyn_puhjhb8P-1" target="pIcZ7qprmyn_puhjhb8P-12" edge="1">
          <mxGeometry relative="1" as="geometry" />
        </mxCell>
        <mxCell id="pIcZ7qprmyn_puhjhb8P-22" value="Yes" style="edgeLabel;html=1;align=center;verticalAlign=middle;resizable=0;points=[];fontSize=14;" parent="pIcZ7qprmyn_puhjhb8P-16" vertex="1" connectable="0">
          <mxGeometry x="-0.0714" y="-2" relative="1" as="geometry">
            <mxPoint x="2" as="offset" />
          </mxGeometry>
        </mxCell>
        <mxCell id="pIcZ7qprmyn_puhjhb8P-1" value="&lt;p style=&quot;line-height: 120%; font-size: 14px;&quot;&gt;Does the customer want Matinée VIP parking?&lt;/p&gt;" style="rhombus;whiteSpace=wrap;html=1;strokeWidth=2;rounded=1;arcSize=12;verticalAlign=middle;horizontal=1;spacing=21;spacingBottom=5;spacingTop=5;spacingLeft=5;spacingRight=5;fontSize=14;" parent="WIyWlLk6GJQsqaUBKTNV-1" vertex="1">
          <mxGeometry x="260" y="320" width="160" height="160" as="geometry" />
        </mxCell>
        <mxCell id="pIcZ7qprmyn_puhjhb8P-17" value="" style="edgeStyle=orthogonalEdgeStyle;rounded=0;orthogonalLoop=1;jettySize=auto;html=1;fontSize=14;" parent="WIyWlLk6GJQsqaUBKTNV-1" source="pIcZ7qprmyn_puhjhb8P-4" target="pIcZ7qprmyn_puhjhb8P-15" edge="1">
          <mxGeometry relative="1" as="geometry" />
        </mxCell>
        <mxCell id="pIcZ7qprmyn_puhjhb8P-23" value="Yes" style="edgeLabel;html=1;align=center;verticalAlign=middle;resizable=0;points=[];fontSize=14;" parent="pIcZ7qprmyn_puhjhb8P-17" vertex="1" connectable="0">
          <mxGeometry x="-0.0714" y="-1" relative="1" as="geometry">
            <mxPoint x="1" as="offset" />
          </mxGeometry>
        </mxCell>
        <mxCell id="pIcZ7qprmyn_puhjhb8P-25" style="edgeStyle=orthogonalEdgeStyle;rounded=0;orthogonalLoop=1;jettySize=auto;html=1;entryX=0.5;entryY=0;entryDx=0;entryDy=0;fontSize=14;" parent="WIyWlLk6GJQsqaUBKTNV-1" source="pIcZ7qprmyn_puhjhb8P-4" target="pIcZ7qprmyn_puhjhb8P-24" edge="1">
          <mxGeometry relative="1" as="geometry" />
        </mxCell>
        <mxCell id="pIcZ7qprmyn_puhjhb8P-26" value="No" style="edgeLabel;html=1;align=center;verticalAlign=middle;resizable=0;points=[];fontSize=14;" parent="pIcZ7qprmyn_puhjhb8P-25" vertex="1" connectable="0">
          <mxGeometry x="-0.746" y="-1" relative="1" as="geometry">
            <mxPoint x="-9" y="-1" as="offset" />
          </mxGeometry>
        </mxCell>
        <mxCell id="pIcZ7qprmyn_puhjhb8P-4" value="&lt;p style=&quot;line-height: 120%; font-size: 14px;&quot;&gt;Does the customer want Evening Standard parking?&lt;/p&gt;" style="rhombus;whiteSpace=wrap;html=1;strokeWidth=2;rounded=1;arcSize=12;verticalAlign=middle;horizontal=1;spacing=21;spacingBottom=5;spacingTop=5;spacingLeft=5;spacingRight=5;fontSize=14;" parent="WIyWlLk6GJQsqaUBKTNV-1" vertex="1">
          <mxGeometry x="460" y="320" width="160" height="160" as="geometry" />
        </mxCell>
        <mxCell id="t3nI9wEh4yMStMV3NvRC-0" style="edgeStyle=orthogonalEdgeStyle;rounded=0;orthogonalLoop=1;jettySize=auto;html=1;entryX=0.5;entryY=0;entryDx=0;entryDy=0;" edge="1" parent="WIyWlLk6GJQsqaUBKTNV-1" source="pIcZ7qprmyn_puhjhb8P-8" target="ZLTeGnqoFGhZjWjbSRd9-31">
          <mxGeometry relative="1" as="geometry">
            <Array as="points">
              <mxPoint x="143" y="660" />
              <mxPoint x="446" y="660" />
            </Array>
          </mxGeometry>
        </mxCell>
        <mxCell id="pIcZ7qprmyn_puhjhb8P-8" value="add 10 to Order.valetCosts" style="shape=parallelogram;html=1;strokeWidth=2;perimeter=parallelogramPerimeter;whiteSpace=wrap;rounded=1;arcSize=12;size=0;spacing=12;spacingLeft=0;spacingRight=0;fontSize=14;" parent="WIyWlLk6GJQsqaUBKTNV-1" vertex="1">
          <mxGeometry x="66" y="520" width="154" height="110" as="geometry" />
        </mxCell>
        <mxCell id="t3nI9wEh4yMStMV3NvRC-1" style="edgeStyle=orthogonalEdgeStyle;rounded=0;orthogonalLoop=1;jettySize=auto;html=1;entryX=0.5;entryY=0;entryDx=0;entryDy=0;" edge="1" parent="WIyWlLk6GJQsqaUBKTNV-1" source="pIcZ7qprmyn_puhjhb8P-12" target="ZLTeGnqoFGhZjWjbSRd9-31">
          <mxGeometry relative="1" as="geometry">
            <Array as="points">
              <mxPoint x="340" y="660" />
              <mxPoint x="446" y="660" />
            </Array>
          </mxGeometry>
        </mxCell>
        <mxCell id="pIcZ7qprmyn_puhjhb8P-12" value="add 15 to Order.valetCosts" style="shape=parallelogram;html=1;strokeWidth=2;perimeter=parallelogramPerimeter;whiteSpace=wrap;rounded=1;arcSize=12;size=0;spacing=12;spacingLeft=0;spacingRight=0;fontSize=14;" parent="WIyWlLk6GJQsqaUBKTNV-1" vertex="1">
          <mxGeometry x="260" y="520" width="160" height="110" as="geometry" />
        </mxCell>
        <mxCell id="t3nI9wEh4yMStMV3NvRC-2" style="edgeStyle=orthogonalEdgeStyle;rounded=0;orthogonalLoop=1;jettySize=auto;html=1;entryX=0.5;entryY=0;entryDx=0;entryDy=0;" edge="1" parent="WIyWlLk6GJQsqaUBKTNV-1" source="pIcZ7qprmyn_puhjhb8P-15" target="ZLTeGnqoFGhZjWjbSRd9-31">
          <mxGeometry relative="1" as="geometry">
            <Array as="points">
              <mxPoint x="540" y="660" />
              <mxPoint x="446" y="660" />
            </Array>
          </mxGeometry>
        </mxCell>
        <mxCell id="pIcZ7qprmyn_puhjhb8P-15" value="add 20 to Order.valetCosts" style="shape=parallelogram;html=1;strokeWidth=2;perimeter=parallelogramPerimeter;whiteSpace=wrap;rounded=1;arcSize=12;size=0;spacing=12;spacingLeft=0;spacingRight=0;fontSize=14;" parent="WIyWlLk6GJQsqaUBKTNV-1" vertex="1">
          <mxGeometry x="460" y="520" width="160" height="110" as="geometry" />
        </mxCell>
        <mxCell id="t3nI9wEh4yMStMV3NvRC-3" style="edgeStyle=orthogonalEdgeStyle;rounded=0;orthogonalLoop=1;jettySize=auto;html=1;entryX=0.5;entryY=0;entryDx=0;entryDy=0;" edge="1" parent="WIyWlLk6GJQsqaUBKTNV-1" source="pIcZ7qprmyn_puhjhb8P-24" target="ZLTeGnqoFGhZjWjbSRd9-31">
          <mxGeometry relative="1" as="geometry">
            <Array as="points">
              <mxPoint x="737" y="660" />
              <mxPoint x="446" y="660" />
            </Array>
          </mxGeometry>
        </mxCell>
        <mxCell id="pIcZ7qprmyn_puhjhb8P-24" value="add 30 to Order.valetCosts" style="shape=parallelogram;html=1;strokeWidth=2;perimeter=parallelogramPerimeter;whiteSpace=wrap;rounded=1;arcSize=12;size=0;spacing=12;spacingLeft=0;spacingRight=0;fontSize=14;" parent="WIyWlLk6GJQsqaUBKTNV-1" vertex="1">
          <mxGeometry x="660" y="520" width="154" height="110" as="geometry" />
        </mxCell>
        <mxCell id="RNRAndHt-aKRMC1XSZec-0" style="edgeStyle=orthogonalEdgeStyle;rounded=0;orthogonalLoop=1;jettySize=auto;html=1;entryX=0.5;entryY=0;entryDx=0;entryDy=0;fontSize=14;" parent="WIyWlLk6GJQsqaUBKTNV-1" source="RNRAndHt-aKRMC1XSZec-2" target="RNRAndHt-aKRMC1XSZec-3" edge="1">
          <mxGeometry relative="1" as="geometry" />
        </mxCell>
        <mxCell id="RNRAndHt-aKRMC1XSZec-1" value="No" style="edgeLabel;html=1;align=center;verticalAlign=middle;resizable=0;points=[];fontSize=14;" parent="RNRAndHt-aKRMC1XSZec-0" vertex="1" connectable="0">
          <mxGeometry x="-0.9587" relative="1" as="geometry">
            <mxPoint x="-4" as="offset" />
          </mxGeometry>
        </mxCell>
        <mxCell id="RNRAndHt-aKRMC1XSZec-4" value="" style="edgeStyle=orthogonalEdgeStyle;rounded=0;orthogonalLoop=1;jettySize=auto;html=1;" parent="WIyWlLk6GJQsqaUBKTNV-1" source="RNRAndHt-aKRMC1XSZec-2" target="_BHGbHKsS6Eedb4s3Qyd-13" edge="1">
          <mxGeometry relative="1" as="geometry" />
        </mxCell>
        <mxCell id="RNRAndHt-aKRMC1XSZec-6" value="Yes" style="edgeLabel;html=1;align=center;verticalAlign=middle;resizable=0;points=[];fontSize=14;" parent="RNRAndHt-aKRMC1XSZec-4" vertex="1" connectable="0">
          <mxGeometry x="-0.35" y="-1" relative="1" as="geometry">
            <mxPoint as="offset" />
          </mxGeometry>
        </mxCell>
        <mxCell id="RNRAndHt-aKRMC1XSZec-2" value="&lt;p style=&quot;line-height: 120%; font-size: 14px;&quot;&gt;Does the customer want to purchase valet parking?&lt;/p&gt;" style="rhombus;whiteSpace=wrap;html=1;strokeWidth=2;rounded=1;arcSize=12;verticalAlign=middle;horizontal=1;spacing=20;spacingBottom=0;spacingTop=0;spacingLeft=10;spacingRight=10;fontSize=14;" parent="WIyWlLk6GJQsqaUBKTNV-1" vertex="1">
          <mxGeometry x="63" y="120" width="160" height="160" as="geometry" />
        </mxCell>
        <mxCell id="RNRAndHt-aKRMC1XSZec-7" style="edgeStyle=orthogonalEdgeStyle;rounded=0;orthogonalLoop=1;jettySize=auto;html=1;entryX=0.5;entryY=0;entryDx=0;entryDy=0;" parent="WIyWlLk6GJQsqaUBKTNV-1" source="RNRAndHt-aKRMC1XSZec-3" target="_BHGbHKsS6Eedb4s3Qyd-38" edge="1">
          <mxGeometry relative="1" as="geometry">
            <Array as="points">
              <mxPoint x="940" y="790" />
              <mxPoint x="446" y="790" />
            </Array>
          </mxGeometry>
        </mxCell>
        <mxCell id="RNRAndHt-aKRMC1XSZec-3" value="add 0 to Order.valetCosts" style="rounded=1;whiteSpace=wrap;html=1;absoluteArcSize=1;arcSize=14;strokeWidth=2;spacing=10;spacingTop=0;spacingBottom=0;spacingLeft=0;spacingRight=0;fontSize=14;" parent="WIyWlLk6GJQsqaUBKTNV-1" vertex="1">
          <mxGeometry x="850" y="520" width="160" height="110" as="geometry" />
        </mxCell>
      </root>
    </mxGraphModel>
  </diagram>
</mxfile>
